{"title":"Furious Seven (2015) Extended 1080p BDRip [Hindi-Eng]Invincible","uid":12171290,"size":4556902178,"categoryP":"video","categoryS":"hd___movies","magnet":"?xt=urn:btih:4b29d0c93664ca93b89cb751df0542d9ec61ef3c&amp;dn=Furious+Seven+%282015%29+Extended+1080p+BDRip+%5BHindi-Eng%5DInvincible&amp;tr=udp%3A%2F%2Ftracker.openbittorrent.com%3A80&amp;tr=udp%3A%2F%2Fopen.demonii.com%3A1337&amp;tr=udp%3A%2F%2Ftracker.coppersurfer.tk%3A6969&amp;tr=udp%3A%2F%2Fexodus.desync.com%3A6969","seeders":6,"leechers":7,"uploader":"SaM","files":12,"time":1438194452,"description":"****************************************************************************************\nFurious Seven (2015) Extended 1080p BDRip [Dual Audio] ORG BD 5.1 [Hindi-Eng]~Invincible\n****************************************************************************************\n------------------------------------------------\nGeneral Information\n------------------------------------------------\nGeneral\nComplete name : Furious Seven (2015) Extended 1080p BDRip [Dual Audio] ORG BD 5.1 [Hindi-Eng]~Invincible.mkv\nFormat : Matroska\nFormat version : Version 4 / Version 2\nFile size : 4.24 GiB\nDuration : 2h 19mn\nOverall bit rate : 4 341 Kbps\nMovie name : Ripper ~INAM\nEncoded date : UTC 2015-06-23 13:41:14\nDURATION : 03:53:15.328000000\n\nVideo\nID : 1\nFormat : AVC\nFormat/Info : Advanced Video Codec\nFormat profile : &lt;a class=&quot;__cf_email__&quot; href=&quot;/cdn-cgi/l/email-protection&quot; data-cfemail=&quot;32705341575e5b5c57727e061c03&quot;&gt;[email&amp;#160;protected]&lt;/a&gt;&lt;script data-cfhash='f9e31' type=&quot;text/javascript&quot;&gt;\n/* &lt;![CDATA[ */!function(){try{var t=&quot;currentScript&quot;in document?document.currentScript:function(){for(var t=document.getElementsByTagName(&quot;script&quot;),e=t.length;e--;)if(t[e].getAttribute(&quot;data-cfhash&quot;))return t[e]}();if(t&amp;&amp;t.previousSibling){var e,r,n,i,c=t.previousSibling,a=c.getAttribute(&quot;data-cfemail&quot;);if(a){for(e=&quot;&quot;,r=parseInt(a.substr(0,2),16),n=2;a.length-n;n+=2)i=parseInt(a.substr(n,2),16)^r,e+=String.fromCharCode(i);e=document.createTextNode(e),c.parentNode.replaceChild(e,c)}t.parentNode.removeChild(t);}}catch(u){}}()/* ]]&gt; */&lt;/script&gt;\nFormat settings, CABAC : No\nFormat settings, ReFrames : 1 frame\nCodec ID : V_MPEG4/ISO/AVC\nDuration : 2h 19mn\nBit rate : 3 500 Kbps\nWidth : 1 920 pixels\nHeight : 800 pixels\nDisplay aspect ratio : 2.40:1\nFrame rate mode : Constant\nFrame rate : 23.976 fps\nColor space : YUV\nChroma subsampling : 4:2:0\nBit depth : 8 bits\nScan type : Progressive\nBits/(Pixel*Frame) : 0.091\nStream size : 3.35 GiB (79%)\nDefault : Yes\nForced : No\n\nAudio #1\nID : 2\nFormat : AC-3\nFormat/Info : Audio Coding 3\nMode extension : CM (complete main)\nFormat settings, Endianness : Big\nCodec ID : A_AC3\nDuration : 2h 19mn\nBit rate mode : Constant\nBit rate : 448 Kbps\nChannel(s) : 6 channels\nChannel positions : Front: L C R, Side: L R, LFE\nSampling rate : 48.0 KHz\nCompression mode : Lossy\nStream size : 448 MiB (10%)\nTitle : Hindi Org Untouched Bluray DD 5.1 448Kbps\nLanguage : Hindi\nDefault : Yes\nForced : No\n\nAudio #2\nID : 3\nFormat : AC-3\nFormat/Info : Audio Coding 3\nMode extension : CM (complete main)\nFormat settings, Endianness : Big\nCodec ID : A_AC3\nDuration : 2h 19mn\nBit rate mode : Constant\nBit rate : 384 Kbps\nChannel(s) : 6 channels\nChannel positions : Front: L C R, Side: L R, LFE\nSampling rate : 48.0 KHz\nCompression mode : Lossy\nStream size : 384 MiB (9%)\nTitle : English DD 5.1 384Kbps\nLanguage : English\nDefault : No\nForced : No\n\nText #1\nID : 4\nFormat : PGS\nMuxing mode : zlib\nCodec ID : S_HDMV/PGS\nCodec ID/Info : Picture based subtitle format used on BDs/HD-DVDs\nTitle : Hindi Org Bluray PGS\nLanguage : Hindi\nDefault : Yes\nForced : No\n\nText #2\nID : 5\nFormat : PGS\nMuxing mode : zlib\nCodec ID : S_HDMV/PGS\nCodec ID/Info : Picture based subtitle format used on BDs/HD-DVDs\nTitle : English Bluray PGS\nLanguage : English\nDefault : No\nForced : No\n &lt;a href=&quot;\nhttp://extraimago.com/image/O1N&quot; rel=&quot;nofollow&quot; target=&quot;_NEW&quot;&gt;\nhttp://extraimago.com/image/O1N&lt;/a&gt; &lt;a href=&quot;\nhttp://extraimago.com/image/O12&quot; rel=&quot;nofollow&quot; target=&quot;_NEW&quot;&gt;\nhttp://extraimago.com/image/O12&lt;/a&gt; &lt;a href=&quot;\nhttp://extraimago.com/image/O1w&quot; rel=&quot;nofollow&quot; target=&quot;_NEW&quot;&gt;\nhttp://extraimago.com/image/O1w&lt;/a&gt; &lt;a href=&quot;\nhttp://extraimago.com/image/O1a&quot; rel=&quot;nofollow&quot; target=&quot;_NEW&quot;&gt;\nhttp://extraimago.com/image/O1a&lt;/a&gt; &lt;a href=&quot;\nhttp://extraimago.com/image/O18&quot; rel=&quot;nofollow&quot; target=&quot;_NEW&quot;&gt;\nhttp://extraimago.com/image/O18&lt;/a&gt; &lt;a href=&quot;\nhttp://extraimago.com/image/Ocf&quot; rel=&quot;nofollow&quot; target=&quot;_NEW&quot;&gt;\nhttp://extraimago.com/image/Ocf&lt;/a&gt; &lt;a href=&quot;\nhttp://extraimago.com/image/OcW&quot; rel=&quot;nofollow&quot; target=&quot;_NEW&quot;&gt;\nhttp://extraimago.com/image/OcW&lt;/a&gt; &lt;a href=&quot;\nhttp://extraimago.com/image/OcA&quot; rel=&quot;nofollow&quot; target=&quot;_NEW&quot;&gt;\nhttp://extraimago.com/image/OcA&lt;/a&gt; &lt;a href=&quot;\nhttp://extraimago.com/image/Ocv&quot; rel=&quot;nofollow&quot; target=&quot;_NEW&quot;&gt;\nhttp://extraimago.com/image/Ocv&lt;/a&gt;","torrent":{"xt":"urn:btih:4b29d0c93664ca93b89cb751df0542d9ec61ef3c","amp;dn":"Furious+Seven+%282015%29+Extended+1080p+BDRip+%5BHindi-Eng%5DInvincible","amp;tr":["udp%3A%2F%2Ftracker.openbittorrent.com%3A80","udp%3A%2F%2Fopen.demonii.com%3A1337","udp%3A%2F%2Ftracker.coppersurfer.tk%3A6969","udp%3A%2F%2Fexodus.desync.com%3A6969"],"infoHash":"4b29d0c93664ca93b89cb751df0542d9ec61ef3c","infoHashBuffer":{"type":"Buffer","data":[75,41,208,201,54,100,202,147,184,156,183,81,223,5,66,217,236,97,239,60]},"announce":[],"urlList":[]}}